<?xml version="1.0" standalone="no"?>
<!DOCTYPE svg PUBLIC "-//W3C//DTD SVG 20010904//EN"
 "http://www.w3.org/TR/2001/REC-SVG-20010904/DTD/svg10.dtd">
<svg version="1.0" xmlns="http://www.w3.org/2000/svg"
 width="512.000000pt" height="512.000000pt" viewBox="0 0 512.000000 512.000000"
 preserveAspectRatio="xMidYMid meet">

<g transform="translate(0.000000,512.000000) scale(0.100000,-0.100000)"
fill="#000000" stroke="none">
<path d="M2355 4306 c-106 -18 -202 -42 -305 -78 -83 -29 -236 -100 -254 -118
-14 -14 11 -60 32 -60 11 0 62 20 113 44 116 54 221 89 353 118 87 19 132 22
316 22 185 0 229 -3 317 -22 554 -121 990 -510 1167 -1042 99 -300 108 -564
31 -917 l-5 -23 403 0 404 0 11 -26 c14 -30 67 -54 104 -47 71 14 99 112 45
159 -39 33 -99 33 -132 -1 -14 -13 -25 -29 -25 -35 0 -7 -117 -10 -361 -10
l-361 0 5 23 c4 12 11 55 18 95 l12 72 248 0 c137 0 249 -4 249 -9 0 -4 12
-20 26 -35 46 -45 119 -33 150 25 54 105 -106 191 -164 89 l-17 -30 -242 0
-243 0 0 95 0 95 336 0 335 0 33 -35 c37 -39 69 -44 116 -20 59 31 59 129 -1
160 -46 24 -77 19 -116 -20 l-35 -35 -334 0 -334 0 0 34 c0 18 -3 61 -6 95
l-7 61 99 0 99 0 27 -34 c34 -42 75 -53 117 -32 37 20 51 44 51 91 0 51 -36
85 -90 85 -30 0 -47 -6 -65 -25 -14 -13 -25 -29 -25 -35 0 -7 -37 -10 -111 -8
l-111 3 -28 110 c-71 284 -219 544 -430 755 -131 131 -257 221 -425 305 -145
72 -261 113 -410 145 -128 28 -456 37 -580 16z"/>
<path d="M2391 4004 c-377 -64 -728 -305 -931 -639 -118 -195 -198 -466 -147
-499 29 -19 50 5 64 72 73 364 334 698 681 871 155 78 357 131 498 131 70 0
97 15 92 51 -3 23 -6 24 -88 26 -47 1 -123 -5 -169 -13z"/>
<path d="M1150 3972 c-28 -22 -30 -70 -4 -89 42 -30 94 -5 94 46 0 48 -53 73
-90 43z"/>
<path d="M4082 3757 c-45 -48 -14 -117 51 -117 43 0 70 29 69 72 -2 63 -77 91
-120 45z m82 -13 c49 -48 -15 -113 -66 -67 -23 21 -23 38 2 63 24 24 43 25 64
4z"/>
<path d="M1250 3614 c-119 -178 -192 -339 -240 -529 l-28 -110 -156 -3 c-106
-2 -156 1 -156 8 0 6 -11 22 -25 35 -34 35 -96 35 -130 0 -34 -33 -34 -93 -1
-132 19 -22 32 -28 66 -28 37 0 47 6 75 38 l32 37 143 0 143 0 -7 -61 c-3 -34
-6 -77 -6 -95 l0 -34 -379 0 -379 0 -35 35 c-39 39 -70 44 -117 20 -59 -31
-59 -129 1 -160 46 -24 78 -19 115 20 l33 35 374 0 374 0 7 -46 c3 -26 6 -69
6 -95 l0 -49 -287 0 -288 0 -17 30 c-58 102 -218 16 -164 -89 31 -58 104 -70
150 -25 14 15 26 31 26 35 0 5 132 9 293 9 l293 0 12 -72 c7 -40 15 -83 18
-95 l6 -23 -406 0 c-276 0 -406 3 -406 10 0 6 -11 22 -25 35 -33 34 -93 34
-132 1 -54 -47 -26 -145 45 -159 37 -7 90 17 104 48 l11 25 409 -2 408 -3 35
-99 c141 -404 438 -743 822 -935 107 -53 322 -124 448 -147 137 -26 450 -26
580 -1 272 53 513 161 725 325 84 66 228 205 257 248 18 28 9 61 -18 69 -16 5
-36 -10 -99 -77 -232 -248 -527 -410 -872 -480 -148 -30 -424 -32 -563 -5
-435 86 -805 333 -1038 694 -110 170 -199 393 -233 588 -24 134 -24 395 0 522
45 249 145 488 282 673 45 62 53 87 32 108 -27 27 -48 11 -118 -94z"/>
<path d="M780 3486 c0 -19 -6 -25 -27 -28 -38 -4 -41 -27 -4 -34 24 -5 31 -12
31 -30 0 -15 6 -24 15 -24 9 0 15 9 15 24 0 18 7 25 31 30 37 7 34 30 -4 34
-21 3 -27 9 -27 28 0 15 -6 24 -15 24 -9 0 -15 -9 -15 -24z"/>
<path d="M2367 3353 c-4 -3 -7 -51 -7 -105 l0 -98 -125 0 -126 0 3 -67 3 -68
67 -5 c37 -3 73 -11 80 -18 10 -10 13 -81 13 -318 0 -344 5 -324 -82 -324 -57
0 -56 0 -68 -80 -4 -25 -9 -53 -11 -62 -5 -16 5 -18 120 -18 l125 0 3 -102 3
-103 63 -3 62 -3 0 106 0 105 50 0 50 0 0 -105 0 -105 65 0 65 0 0 109 0 108
68 6 c125 10 225 60 268 134 22 36 28 62 32 124 2 43 1 94 -2 114 -9 48 -66
110 -121 130 l-43 17 35 31 c46 41 63 82 63 155 0 127 -65 195 -218 228 -37 7
-70 14 -74 14 -5 0 -8 47 -8 105 l0 105 -65 0 -65 0 0 -105 0 -105 -50 0 -50
0 0 105 0 105 -58 0 c-32 0 -62 -3 -65 -7z m272 -354 c83 -13 118 -32 138 -74
48 -101 -61 -183 -229 -173 l-53 3 -3 122 -3 122 33 4 c18 2 38 4 43 5 6 1 39
-3 74 -9z m100 -395 c84 -24 120 -77 100 -150 -19 -68 -107 -104 -256 -104
l-93 0 0 134 0 135 33 3 c53 7 158 -3 216 -18z"/>
<path d="M1286 2777 c-24 -17 -19 -115 7 -131 31 -19 52 4 55 63 4 72 -20 99
-62 68z"/>
<path d="M1396 2139 c-17 -26 -15 -32 45 -134 84 -143 249 -322 372 -403 36
-24 38 -24 57 -7 11 10 20 24 20 31 0 7 -33 40 -74 73 -40 33 -109 98 -152
144 -72 77 -102 119 -194 270 -32 51 -51 58 -74 26z"/>
<path d="M3973 1892 c-52 -71 -69 -111 -57 -130 6 -9 21 -18 32 -20 17 -3 30
10 62 60 44 70 50 102 21 118 -28 14 -28 14 -58 -28z"/>
<path d="M742 1784 c-28 -20 -31 -83 -4 -107 25 -23 78 -21 102 3 61 61 -27
154 -98 104z m88 -36 c14 -26 13 -29 -7 -50 -19 -18 -27 -20 -50 -12 -34 11
-43 53 -17 78 23 24 55 16 74 -16z"/>
<path d="M4140 1641 c-26 -49 1 -94 53 -89 22 2 36 11 46 29 13 24 13 29 -2
53 -22 33 -80 37 -97 7z"/>
<path d="M3987 1443 c-4 -3 -7 -14 -7 -24 0 -11 -9 -19 -22 -21 -29 -4 -30
-32 -1 -36 13 -2 24 -13 27 -28 8 -32 36 -32 36 1 0 20 5 25 25 25 18 0 25 5
25 20 0 15 -7 20 -25 20 -20 0 -25 5 -25 25 0 24 -18 34 -33 18z"/>
</g>
</svg>
